solid ascii
 facet normal -1 0 0
  outer loop
   vertex 3.5 3 0
   vertex 3.5 3 2.1
   vertex 3.5 4 0
  endloop
 endfacet
 facet normal -1 0 0
  outer loop
   vertex 3.5 4 2.1
   vertex 3.5 4 0
   vertex 3.5 3 2.1
  endloop
 endfacet
 facet normal 1 0 0
  outer loop
   vertex 4.5 3 0
   vertex 4.5 4 0
   vertex 4.5 3 2.1
  endloop
 endfacet
 facet normal 1 -0 0
  outer loop
   vertex 4.5 4 2.1
   vertex 4.5 3 2.1
   vertex 4.5 4 0
  endloop
 endfacet
 facet normal 0 -1 0
  outer loop
   vertex 3.5 3 0
   vertex 4.5 3 0
   vertex 3.5 3 2.1
  endloop
 endfacet
 facet normal 0 -1 0
  outer loop
   vertex 4.5 3 2.1
   vertex 3.5 3 2.1
   vertex 4.5 3 0
  endloop
 endfacet
 facet normal 0 1 0
  outer loop
   vertex 3.5 4 0
   vertex 3.5 4 2.1
   vertex 4.5 4 0
  endloop
 endfacet
 facet normal 0 1 -0
  outer loop
   vertex 4.5 4 2.1
   vertex 4.5 4 0
   vertex 3.5 4 2.1
  endloop
 endfacet
 facet normal 0 0 -1
  outer loop
   vertex 3.5 3 0
   vertex 3.5 4 0
   vertex 4.5 3 0
  endloop
 endfacet
 facet normal 0 0 -1
  outer loop
   vertex 4.5 4 0
   vertex 4.5 3 0
   vertex 3.5 4 0
  endloop
 endfacet
 facet normal 0 0 1
  outer loop
   vertex 3.5 3 2.1
   vertex 4.5 3 2.1
   vertex 3.5 4 2.1
  endloop
 endfacet
 facet normal -0 0 1
  outer loop
   vertex 4.5 4 2.1
   vertex 3.5 4 2.1
   vertex 4.5 3 2.1
  endloop
 endfacet
endsolid
