solid ascii
 facet normal -1 0 0
  outer loop
   vertex 3.54 3.04 -0.04
   vertex 3.54 3.04 2.06
   vertex 3.54 4.04 -0.04
  endloop
 endfacet
 facet normal -1 0 0
  outer loop
   vertex 3.54 4.04 2.06
   vertex 3.54 4.04 -0.04
   vertex 3.54 3.04 2.06
  endloop
 endfacet
 facet normal 1 0 0
  outer loop
   vertex 4.54 3.04 -0.04
   vertex 4.54 4.04 -0.04
   vertex 4.54 3.04 2.06
  endloop
 endfacet
 facet normal 1 -0 0
  outer loop
   vertex 4.54 4.04 2.06
   vertex 4.54 3.04 2.06
   vertex 4.54 4.04 -0.04
  endloop
 endfacet
 facet normal 0 -1 0
  outer loop
   vertex 3.54 3.04 -0.04
   vertex 4.54 3.04 -0.04
   vertex 3.54 3.04 2.06
  endloop
 endfacet
 facet normal 0 -1 0
  outer loop
   vertex 4.54 3.04 2.06
   vertex 3.54 3.04 2.06
   vertex 4.54 3.04 -0.04
  endloop
 endfacet
 facet normal 0 1 0
  outer loop
   vertex 3.54 4.04 -0.04
   vertex 3.54 4.04 2.06
   vertex 4.54 4.04 -0.04
  endloop
 endfacet
 facet normal 0 1 -0
  outer loop
   vertex 4.54 4.04 2.06
   vertex 4.54 4.04 -0.04
   vertex 3.54 4.04 2.06
  endloop
 endfacet
 facet normal 0 0 -1
  outer loop
   vertex 3.54 3.04 -0.04
   vertex 3.54 4.04 -0.04
   vertex 4.54 3.04 -0.04
  endloop
 endfacet
 facet normal 0 0 -1
  outer loop
   vertex 4.54 4.04 -0.04
   vertex 4.54 3.04 -0.04
   vertex 3.54 4.04 -0.04
  endloop
 endfacet
 facet normal 0 0 1
  outer loop
   vertex 3.54 3.04 2.06
   vertex 4.54 3.04 2.06
   vertex 3.54 4.04 2.06
  endloop
 endfacet
 facet normal -0 0 1
  outer loop
   vertex 4.54 4.04 2.06
   vertex 3.54 4.04 2.06
   vertex 4.54 3.04 2.06
  endloop
 endfacet
endsolid
