solid ascii
 facet normal -1 0 0
  outer loop
   vertex 2 2 0
   vertex 2 2 2.1
   vertex 2 3 0
  endloop
 endfacet
 facet normal -1 0 0
  outer loop
   vertex 2 3 2.1
   vertex 2 3 0
   vertex 2 2 2.1
  endloop
 endfacet
 facet normal 1 0 0
  outer loop
   vertex 3 2 0
   vertex 3 3 0
   vertex 3 2 2.1
  endloop
 endfacet
 facet normal 1 -0 0
  outer loop
   vertex 3 3 2.1
   vertex 3 2 2.1
   vertex 3 3 0
  endloop
 endfacet
 facet normal 0 -1 0
  outer loop
   vertex 2 2 0
   vertex 3 2 0
   vertex 2 2 2.1
  endloop
 endfacet
 facet normal 0 -1 0
  outer loop
   vertex 3 2 2.1
   vertex 2 2 2.1
   vertex 3 2 0
  endloop
 endfacet
 facet normal 0 1 0
  outer loop
   vertex 2 3 0
   vertex 2 3 2.1
   vertex 3 3 0
  endloop
 endfacet
 facet normal 0 1 -0
  outer loop
   vertex 3 3 2.1
   vertex 3 3 0
   vertex 2 3 2.1
  endloop
 endfacet
 facet normal 0 0 -1
  outer loop
   vertex 2 2 0
   vertex 2 3 0
   vertex 3 2 0
  endloop
 endfacet
 facet normal 0 0 -1
  outer loop
   vertex 3 3 0
   vertex 3 2 0
   vertex 2 3 0
  endloop
 endfacet
 facet normal 0 0 1
  outer loop
   vertex 2 2 2.1
   vertex 3 2 2.1
   vertex 2 3 2.1
  endloop
 endfacet
 facet normal -0 0 1
  outer loop
   vertex 3 3 2.1
   vertex 2 3 2.1
   vertex 3 2 2.1
  endloop
 endfacet
endsolid
